<svg id="bucket" enable-background="new 0 0 300 300" height="512" viewBox="0 0 300 300" width="512" xmlns="http://www.w3.org/2000/svg" xmlns:xlink="http://www.w3.org/1999/xlink"><linearGradient id="SVGId_1_" gradientUnits="userSpaceOnUse" x1="49.708" x2="230.549" y1="256.292" y2="75.451"><stop offset="0" stop-color="#107eff"/><stop offset="1" stop-color="#8f16ff"/></linearGradient><g><path d="m157.074 66c0-2.209 1.791-4 4-4s4 1.791 4 4-1.791 4-4 4-4-1.791-4-4zm-87.605 86.766c.957 3.154.625 6.492-.926 9.398-1.555 2.906-4.148 5.033-7.305 5.988-1.184.359-2.391.537-3.594.537-2.004 0-3.988-.494-5.805-1.465-2.906-1.555-5.031-4.146-5.988-7.301s-.625-6.492.93-9.398 4.148-5.033 7.301-5.988c3.152-.961 6.492-.625 9.398.928 2.907 1.555 5.032 4.146 5.989 7.301zm-7.657 2.32c-.336-1.109-1.086-2.02-2.105-2.566-.641-.342-1.336-.516-2.039-.516-.426 0-.848.062-1.266.189-1.109.336-2.02 1.084-2.566 2.105s-.664 2.195-.328 3.305c.695 2.291 3.125 3.584 5.41 2.893 1.109-.336 2.023-1.084 2.57-2.105s.66-2.196.324-3.305zm-12.738-97.574c2.211 0 4-1.791 4-4v-5.66c0-2.209-1.789-4-4-4s-4 1.791-4 4v5.66c0 2.209 1.789 4 4 4zm0 22.636c2.211 0 4-1.791 4-4v-5.66c0-2.209-1.789-4-4-4s-4 1.791-4 4v5.66c0 2.209 1.789 4 4 4zm-8.488-22.148h-5.66c-2.211 0-4 1.791-4 4s1.789 4 4 4h5.66c2.211 0 4-1.791 4-4s-1.789-4-4-4zm16.976 8h5.66c2.211 0 4-1.791 4-4s-1.789-4-4-4h-5.66c-2.211 0-4 1.791-4 4s1.79 4 4 4zm211.512 184c0 2.209-1.789 4-4 4h-49.415c-8.656 11.626-54.838 12-60.585 12s-51.929-.374-60.585-12h-45.415c-2.211 0-4-1.791-4-4s1.789-4 4-4h43.386l-19.347-135.434c-.009-.061.016-.115.01-.175-.007-.133-.049-.257-.049-.391 0-8.605 14.898-13.506 32-16.3v-18.817c0-22.543 18.34-40.883 40.883-40.883h26.234c22.543 0 40.883 18.34 40.883 40.883v20.338c13.488 2.948 24 7.555 24 14.779 0 .134-.042.258-.049.391-.006.06.019.115.01.176l-19.347 135.433h47.386c2.211 0 4 1.791 4 4zm-172.522-31.947c16.753 2.606 37.361 4.048 58.522 4.048s41.769-1.442 58.522-4.048l5.836-40.854c-17.974 3.163-40.522 4.902-64.358 4.902s-46.384-1.74-64.358-4.902zm8.522-91.753c-8.591-1.403-16.619-3.34-22.488-6.01l6.936 48.552c17.894 3.386 40.985 5.26 65.552 5.26s47.659-1.874 65.552-5.26l6.936-48.552c-21.032 9.568-69.866 9.71-72.488 9.71-1.667 0-22-.058-42-2.555v7.664c2.381 1.386 4 3.937 4 6.89 0 4.418-3.582 8-8 8s-8-3.582-8-8c0-2.954 1.619-5.505 4-6.89zm8-33.745c20-2.497 40.333-2.555 42-2.555 1.891 0 27.803.074 50 3.7v-18.817c0-18.131-14.75-32.883-32.883-32.883h-26.234c-18.133 0-32.883 14.752-32.883 32.883zm42 165.445c33.449 0 51.691-5.486 54.023-8.42.004-.049.012-.098.016-.146l3.301-23.104c-16.698 2.435-36.791 3.772-57.34 3.772s-40.642-1.337-57.34-3.772l3.301 23.104c.004.049.012.098.016.146 2.332 2.934 20.574 8.42 54.023 8.42z" fill="url(#SVGId_1_)"/></g></svg>