<svg id="Layer_1" height="512" viewBox="0 0 512 512" width="512" xmlns="http://www.w3.org/2000/svg" data-name="Layer 1"><path d="m454.05 41h-396.1a40.525 40.525 0 0 0 -20.428 75.492 236.478 236.478 0 0 0 31.588 114.486l3.631 32.3 18.793 167.35a44.662 44.662 0 0 0 44.519 40.372h239.894a44.639 44.639 0 0 0 44.511-40.293l18.8-167.383 3.631-32.312a236.683 236.683 0 0 0 31.828-114.477 40.714 40.714 0 0 0 20.283-34.923c0-22.32-18.635-40.612-40.95-40.612zm-404.395 80.224a40.42 40.42 0 0 0 7.206.83l8.208 73a225.116 225.116 0 0 1 -15.414-73.83zm258.787 186.776h-104.884c-3.313 0-5.558 3.037-5.558 6.35v10.428a224.285 224.285 0 0 1 -104.275-78.357 230.875 230.875 0 0 1 -12.862-19.316l-11.923-105.105h374.12l-11.813 105.106a231.9 231.9 0 0 1 -12.963 19.283 224.36 224.36 0 0 1 -104.284 78.389v-10.428c0-3.313-2.245-6.35-5.558-6.35zm-6.442 12v27h-92v-27zm125.334-58.05-18.809 167.491a32.7 32.7 0 0 1 -32.578 29.559h-239.894a32.715 32.715 0 0 1 -32.586-29.633l-18.8-167.383-.968-8.629c.049.067.317.126.366.193a236.224 236.224 0 0 0 113.935 83.977v15.575c0 3.313 2.245 5.9 5.558 5.9h104.884c3.313 0 5.558-2.583 5.558-5.9v-15.58a236.265 236.265 0 0 0 113.946-84c.045-.062.2-.125.246-.188zm19.6-66.894 8.208-73a40.42 40.42 0 0 0 7.206-.83 225.116 225.116 0 0 1 -15.417 73.83zm36.066-113.444c0 15.699-13.251 28.388-28.95 28.388h-396.1a28.5 28.5 0 0 1 0-57h396.1c15.699 0 28.95 12.909 28.95 28.608z"/></svg>