<svg id="Capa_1" enable-background="new 0 0 512 512" height="512" viewBox="0 0 512 512" width="512" xmlns="http://www.w3.org/2000/svg"><g><g><path d="m436 180c-8.284 0-15-6.716-15-15 0-74.439-60.561-135-135-135h-60c-74.439 0-135 60.561-135 135 0 8.284-6.716 15-15 15s-15-6.716-15-15c0-90.981 74.019-165 165-165h60c90.981 0 165 74.019 165 165 0 8.284-6.716 15-15 15z" fill="#d5e8fe"/></g><g><path d="m286 0h-30v30h30c74.439 0 135 60.561 135 135 0 8.284 6.716 15 15 15s15-6.716 15-15c0-90.981-74.019-165-165-165z" fill="#b5dbff"/></g><g id="Bucket_1_"><g><g id="Recycling_Bin_10_"><g id="Coffee_take_away_9_"><g><path d="m376 512h-240c-7.039 0-13.131-4.895-14.648-11.769l-60-272c-.979-4.439.107-9.083 2.955-12.626s7.147-5.605 11.693-5.605h360c4.546 0 8.846 2.062 11.693 5.605s3.934 8.187 2.955 12.626l-60 272c-1.517 6.874-7.609 11.769-14.648 11.769z" fill="#76e2f8"/></g></g></g></g></g><path d="m436 210h-180v302h120c7.039 0 13.131-4.895 14.648-11.769l60-272c.979-4.439-.107-9.083-2.955-12.626s-7.147-5.605-11.693-5.605z" fill="#73bcff"/><g><g><path d="m466 240h-420c-8.284 0-15-6.716-15-15v-60c0-8.284 6.716-15 15-15h420c8.284 0 15 6.716 15 15v60c0 8.284-6.716 15-15 15z" fill="#73bcff"/></g></g><path d="m466 150h-210v90h210c8.284 0 15-6.716 15-15v-60c0-8.284-6.716-15-15-15z" fill="#4895ff"/></g></svg>