<?xml version="1.0"?>
<svg xmlns="http://www.w3.org/2000/svg" viewBox="0 0 64 64" width="512" height="512"><g id="Bucket-2" data-name="Bucket"><path d="M62,9H57V6a1,1,0,0,0-1-1H8A1,1,0,0,0,7,6V9H2a1,1,0,0,0-1,1v8A23.764,23.764,0,0,0,8.5,35.515L9,57.023A1,1,0,0,0,10,58H54a1,1,0,0,0,1-.977l.5-21.508A23.764,23.764,0,0,0,63,18V10A1,1,0,0,0,62,9ZM53.517,34.76A28.821,28.821,0,0,1,40,41.173V40a1,1,0,0,0-1-1H25a1,1,0,0,0-1,1v1.173A28.821,28.821,0,0,1,10.483,34.76L10.023,15H53.977ZM38,41v4H26V41ZM9,7H55v6H9ZM3,18V11H7v3a1,1,0,0,0,1,1h.023l.411,17.691A22.361,22.361,0,0,1,3,18ZM53.023,56H10.977l-.436-18.723A32.2,32.2,0,0,0,24,43.2V46a1,1,0,0,0,1,1H39a1,1,0,0,0,1-1V43.2a32.2,32.2,0,0,0,13.459-5.92ZM61,18a22.361,22.361,0,0,1-5.434,14.691L55.977,15H56a1,1,0,0,0,1-1V11h4Z"/><path d="M23,52H14a1,1,0,0,0,0,2h9a1,1,0,0,0,0-2Z"/><path d="M28,52H26a1,1,0,0,0,0,2h2a1,1,0,0,0,0-2Z"/></g></svg>
