<?xml version="1.0" encoding="iso-8859-1"?>
<!-- Generator: Adobe Illustrator 19.0.0, SVG Export Plug-In . SVG Version: 6.00 Build 0)  -->
<svg version="1.1" id="Capa_1" xmlns="http://www.w3.org/2000/svg" xmlns:xlink="http://www.w3.org/1999/xlink" x="0px" y="0px"
	 viewBox="0 0 394.971 394.971" style="enable-background:new 0 0 394.971 394.971;" xml:space="preserve">
<g>
	<g>
		<path style="fill:#D4E1F4;" d="M342.727,56.424v275.331c-0.14,15.634-6.318,30.609-17.241,41.796
			c-11.124,11.017-26.139,17.211-41.796,17.241h-4.18c-30.845-2.442-54.682-28.096-54.857-59.037v-17.241H69.486l2.09-258.09
			H342.727z"/>
		<path style="fill:#00CEB4;" d="M279.51,390.792H59.037C26.432,390.792,0,364.36,0,331.755l0,0v-17.241h224.653v17.241
			C224.828,362.696,248.666,388.35,279.51,390.792z"/>
	</g>
	<g>
		<g>
			<path style="fill:#083863;" d="M196.441,138.449h-80.98c-5.771,0-10.449-4.678-10.449-10.449c0-5.771,4.678-10.449,10.449-10.449
				h80.98c5.771,0,10.449,4.678,10.449,10.449C206.89,133.771,202.212,138.449,196.441,138.449z"/>
			<path style="fill:#083863;" d="M280.033,195.918H115.461c-5.771,0-10.449-4.678-10.449-10.449
				c0-5.771,4.678-10.449,10.449-10.449h164.571c5.771,0,10.449,4.678,10.449,10.449
				C290.482,191.24,285.803,195.918,280.033,195.918z"/>
			<path style="fill:#083863;" d="M280.033,258.612H115.461c-5.771,0-10.449-4.678-10.449-10.449
				c0-5.771,4.678-10.449,10.449-10.449h164.571c5.771,0,10.449,4.678,10.449,10.449
				C290.482,253.934,285.803,258.612,280.033,258.612z"/>
		</g>
		<path style="fill:#00CEB4;" d="M384.522,300.408c-5.771,0-10.449-4.678-10.449-10.449V25.078H113.371
			c-5.771,0-10.449-4.678-10.449-10.449S107.601,4.18,113.371,4.18h271.151c5.771,0,10.449,4.678,10.449,10.449v275.331
			C394.971,295.73,390.293,300.408,384.522,300.408z"/>
	</g>
</g>
<g>
</g>
<g>
</g>
<g>
</g>
<g>
</g>
<g>
</g>
<g>
</g>
<g>
</g>
<g>
</g>
<g>
</g>
<g>
</g>
<g>
</g>
<g>
</g>
<g>
</g>
<g>
</g>
<g>
</g>
</svg>
