<svg xmlns="http://www.w3.org/2000/svg" xmlns:xlink="http://www.w3.org/1999/xlink" viewBox="0 0 24 30" version="1.1" x="0px" y="0px"><title>icon/header</title><desc>Created with Sketch.</desc><g stroke="none" stroke-width="1" fill="none" fill-rule="evenodd"><path d="M2.5,11 C2.22385763,11 2,10.7761424 2,10.5 C2,10.2238576 2.22385763,10 2.5,10 L19.5,10 C19.7761424,10 20,10.2238576 20,10.5 C20,10.7761424 19.7761424,11 19.5,11 L2.5,11 Z M2.5,14 C2.22385763,14 2,13.7761424 2,13.5 C2,13.2238576 2.22385763,13 2.5,13 L16.5,13 C16.7761424,13 17,13.2238576 17,13.5 C17,13.7761424 16.7761424,14 16.5,14 L2.5,14 Z M2.5,17 C2.22385763,17 2,16.7761424 2,16.5 C2,16.2238576 2.22385763,16 2.5,16 L19.5,16 C19.7761424,16 20,16.2238576 20,16.5 C20,16.7761424 19.7761424,17 19.5,17 L2.5,17 Z M2.5,20 C2.22385763,20 2,19.7761424 2,19.5 C2,19.2238576 2.22385763,19 2.5,19 L10.5,19 C10.7761424,19 11,19.2238576 11,19.5 C11,19.7761424 10.7761424,20 10.5,20 L2.5,20 Z M2.5,8 C2.22385763,8 2,7.77614237 2,7.5 L2,2.5 C2,2.22385763 2.22385763,2 2.5,2 L20.5,2 C20.7761424,2 21,2.22385763 21,2.5 L21,7.5 C21,7.77614237 20.7761424,8 20.5,8 L2.5,8 Z M3,7 L20,7 L20,3 L3,3 L3,7 Z" fill="#000000" fill-rule="nonzero"/></g><text x="0" y="39" fill="#000000" font-size="5px" font-weight="bold" font-family="'Helvetica Neue', Helvetica, Arial-Unicode, Arial, Sans-serif">Created by Travis Avery</text><text x="0" y="44" fill="#000000" font-size="5px" font-weight="bold" font-family="'Helvetica Neue', Helvetica, Arial-Unicode, Arial, Sans-serif">from the Noun Project</text></svg>