<svg id="SvgjsSvg1038" width="288" height="288" xmlns="http://www.w3.org/2000/svg" version="1.1" xmlns:xlink="http://www.w3.org/1999/xlink" xmlns:svgjs="http://svgjs.com/svgjs"><defs id="SvgjsDefs1039"></defs><g id="SvgjsG1040"><svg xmlns="http://www.w3.org/2000/svg" width="288" height="288" data-type="color" viewBox="0 0 200 200"><path fill="#ffffff" d="M80.956 43.996v25.498l43.511-11.102V32.894L80.956 43.996z" data-color="1" class="color4DB2FF svgShape"></path><path fill="#70eae1" d="M175 45.498V20l-31.117 7.939v25.498L175 45.498z" data-color="2" class="color0EF3D3 svgShape"></path><path fill="#5871ff" d="M25 58.274v25.498l36.538-9.323V48.951L25 58.274zM175 93.612V68.114l-31.117 7.941v25.497L175 93.612z" data-color="3" class="color000059 svgShape"></path><path fill="#ffffff" d="M25 106.389v25.497l99.467-25.38V81.009L25 106.389z" data-color="1" class="color4DB2FF svgShape"></path><path fill="#70eae1" d="M175 141.726v-25.498l-94.044 23.998v25.497L175 141.726z" data-color="2" class="color0EF3D3 svgShape"></path><path fill="#5871ff" d="M25 154.503V180l36.538-9.323V145.18L25 154.503z" data-color="3" class="color000059 svgShape"></path></svg></g></svg>