<svg id="Capa_1" enable-background="new 0 0 512.326 512.326" height="512" viewBox="0 0 512.326 512.326" width="512" xmlns="http://www.w3.org/2000/svg"><g id="XMLID_619_"><path id="XMLID_612_" d="m171.214 86.163-40-40h-131.214v387.955l435-.43s0-329.179 0-347.525z" fill="#2b4c9f"/><path d="m435 86.163h-190.706v95.857h190.706c0-3.423 0-90.831 0-95.857z" fill="#213b82"/><path id="XMLID_647_" d="m431.643 466.163h-431.643v-32.045l78.599-282.955h433.727z" fill="#e4f3ff"/><path d="m512.326 151.163h-268.032v315h187.349z" fill="#c3dafd"/><g id="XMLID_609_"><path id="XMLID_618_" d="m334.588 407.689h-180.588v-15c0-49.788 40.506-90.294 90.294-90.294s90.294 40.506 90.294 90.294z" fill="#dc4c69"/><ellipse id="XMLID_615_" cx="244.294" cy="272.218" fill="#ebcea5" rx="60.176" ry="60.177" transform="matrix(1 -.012 .012 1 -3.296 2.994)"/></g><path id="XMLID_625_" d="m334.588 392.689c0-33.989-18.881-63.648-46.703-79.051-15.972 0-43.591 6.384-43.591 18.757v75.294h90.294z" fill="#c21d75"/><path id="XMLID_649_" d="m304.47 272.218c0-33.182-26.994-60.177-60.176-60.177v120.354c33.063 0 60.176-26.943 60.176-60.177z" fill="#e7b889"/></g></svg>