<?xml version="1.0" encoding="iso-8859-1"?>
<!-- Generator: Adobe Illustrator 19.0.0, SVG Export Plug-In . SVG Version: 6.00 Build 0)  -->
<svg xmlns="http://www.w3.org/2000/svg" xmlns:xlink="http://www.w3.org/1999/xlink" version="1.1" id="Layer_1" x="0px" y="0px" viewBox="0 0 512 512" style="enable-background:new 0 0 512 512;" xml:space="preserve" width="512" height="512">
<g>
	<polygon style="fill:#61729B;" points="376,0 376,512 316,512 286,482 106,482 76,512 16,512 16,0 76,0 106,31 286,31 316,0  "/>
	<polygon style="fill:#47568C;" points="376,0 376,512 316,512 286,482 196,482 196,31 286,31 316,0  "/>
	<rect x="76" style="fill:#E0F4FF;" width="240" height="91"/>
	<rect x="76" y="421" style="fill:#E0F4FF;" width="240" height="91"/>
	<rect x="76" y="151" style="fill:#E0F4FF;" width="240" height="210"/>
	<rect x="196" style="fill:#BBDCFF;" width="120" height="91"/>
	<rect x="196" y="151" style="fill:#BBDCFF;" width="120" height="210"/>
	<rect x="196" y="421" style="fill:#BBDCFF;" width="120" height="91"/>
	<g>
		<polygon style="fill:#61729B;" points="496,94.64 453.574,137.066 400.541,126.459 389.934,73.426 432.36,31   "/>
		<polygon style="fill:#47568C;" points="496,94.64 453.574,137.066 400.541,126.459 464.18,62.82   "/>
		<polygon style="fill:#979FEF;" points="453.574,137.066 294.475,296.165 209.622,317.378 230.835,232.525 389.934,73.426   "/>
		<polygon style="fill:#737EE6;" points="453.574,137.066 294.475,296.165 209.622,317.378 421.754,105.246   "/>
	</g>
</g>















</svg>
