<svg id="Capa_1" enable-background="new 0 0 509.486 509.486" height="512" viewBox="0 0 509.486 509.486" width="512" xmlns="http://www.w3.org/2000/svg"><g><g><path d="m481.286 321.626c-.826-7.35-40.507-205.922-52.637-266.546-4.806-24.545-26.446-42.359-51.458-42.359-20.354 0-39.031 11.935-47.583 30.406l-12.403 26.794c-.213-.069-.428-.133-.641-.202l.554.21-62.375 75.125-21.333 171 21.333 180.712c32.785 0 63.522-14.714 84.083-39.81 19.484 3.203 39.487 1.664 58.421-4.561 27.063-8.896 50.353-27.024 65.583-51.045 15.018-23.686 21.571-51.999 18.456-79.724z" fill="#fdc673"/><path d="m192.326 69.907c-.015.005-.03.009-.044.014l-12.403-26.795c-8.552-18.47-27.23-30.405-47.583-30.405-25.012 0-46.652 17.814-51.445 42.298-12.144 60.685-51.825 259.257-52.651 266.607-3.115 27.725 3.439 56.038 18.456 79.724 15.229 24.021 38.521 42.149 65.583 51.045 18.932 6.225 38.938 7.763 58.421 4.561 20.561 25.099 51.295 39.81 84.083 39.81v-351.713z" fill="#ffdf8e"/></g><g><path d="m254.743 166.387h15l47.375-96.458-.554-.21c-19.925-6.425-40.657-9.679-61.821-9.679l-10.667 53.014z" fill="#f2b06e"/><path d="m254.743 166.387v-106.347c-21.375 0-42.31 3.315-62.417 9.867l47.417 96.48z" fill="#fdc673"/></g><path d="m152.683 196.947h30v54.772h-30z" fill="#835331"/><path d="m326.804 196.947h30v54.772h-30z" fill="#573821"/><path d="m37.743 238.457h30v101.193h-30z" fill="#faecaf" transform="matrix(.316 -.949 .949 .316 -238.156 247.683)"/><path d="m2.147 370.053h101.193v30h-101.193z" fill="#faecaf" transform="matrix(.949 -.316 .316 .949 -119.051 36.435)"/><path d="m406.147 274.053h101.193v30h-101.193z" fill="#ffdf8e" transform="matrix(.949 -.316 .316 .949 -67.966 159.258)"/><path d="m441.743 334.457h30v101.193h-30z" fill="#ffdf8e" transform="matrix(.316 -.949 .949 .316 -52.986 696.594)"/><g><path d="m299.216 314.165c-8.945 0-26.708 0-44.472 0l-9.338 43.722 9.338 50.455c10.574 12.835 26.583 21.032 44.472 21.032 31.763 0 57.605-25.841 57.605-57.605-.001-31.762-25.842-57.604-57.605-57.604z" fill="#f7f0eb"/><path d="m210.271 314.165c-31.763 0-57.605 25.842-57.605 57.605s25.841 57.605 57.605 57.605c17.889 0 33.899-8.197 44.472-21.032v-94.177c-17.764-.001-35.528-.001-44.472-.001z" fill="#fffbf5"/></g><g><path d="m286.911 287.383c-8.105-5.306-18.817-7.996-31.837-7.996-.112 0-.22.004-.331.004l-9.338 41.144 9.338 47.218.331.148 5.367-2.402c.406-.182 10.061-4.535 19.761-11.556 15.168-10.979 22.858-22.851 22.858-35.283 0-17.114-8.782-26.454-16.149-31.277z" fill="#ebafa0"/><path d="m223.236 287.383c-7.366 4.822-16.148 14.163-16.148 31.276 0 12.432 7.69 24.303 22.858 35.283 9.7 7.021 19.355 11.374 19.761 11.556l5.036 2.254v-88.361c-12.869.046-23.47 2.731-31.507 7.992z" fill="#efbeaa"/></g></g></svg>