<svg id="Layer_1" enable-background="new 0 0 511.853 511.853" height="512" viewBox="0 0 511.853 511.853" width="512" xmlns="http://www.w3.org/2000/svg"><g><path d="m79.72 306.823c-51.408 19.729-79.72 47.728-79.72 78.838 0 31.222 28.488 59.29 80.217 79.032 47.171 18.003 109.572 27.917 175.709 27.917s128.538-9.915 175.709-27.917c51.729-19.742 80.217-47.81 80.217-79.032 0-31.121-28.328-59.126-79.766-78.856z" fill="#a5e887"/><path d="m432.086 306.804-176.188.009v185.797h.028c66.137 0 128.538-9.915 175.709-27.917 51.729-19.742 80.217-47.81 80.217-79.032.001-31.121-28.328-59.126-79.766-78.857z" fill="#00cc76"/><path d="m420.126 159.223c-5.073-40.871-17.627-71.148-18.16-72.417l-5.269-12.568-13.014 4.042c-1.426.442-35.334 11.126-71.6 35.581l-9.564 6.449 30.323 87.487 88.683-37.303z" fill="#e50058"/><path d="m420.126 159.223c-5.073-40.871-17.627-71.148-18.16-72.417l-5.269-12.568-13.014 4.042c-1.426.442-35.334 11.126-71.6 35.581l-9.564 6.449 30.323 87.487 88.683-37.303z" fill="#b40042"/><path d="m199.711 113.861c-36.265-24.454-70.174-35.138-71.6-35.581l-13.014-4.042-5.269 12.568c-.532 1.269-13.086 31.546-18.159 72.417l-1.399 11.271 88.683 37.304 30.322-87.487z" fill="#e50058"/><path d="m356.53 185.063c-16.17-88.263-87.518-153.91-90.547-156.662l-10.085-9.159-10.085 9.159c-3.029 2.751-74.377 68.398-90.547 156.662l-.993 5.422 101.592 176.143 101.658-176.141z" fill="#ff7c48"/><path d="m356.53 185.063c-16.17-88.263-87.518-153.91-90.547-156.662l-10.085-9.159v347.33l101.625-176.084z" fill="#ff415b"/><path d="m255.926 336.613h-.056" fill="none"/><path d="m479.853 148.759-1.838-13.499-13.613.534c-4.69.184-115.566 5.345-176.868 78.403-13.087 15.597-23.708 34.287-31.62 55.443-7.92-21.141-18.551-39.83-31.653-55.443-61.302-73.058-172.178-78.219-176.868-78.403l-13.613-.534-1.838 13.499c-.632 4.651-14.802 114.738 46.5 187.795 61.302 73.058 172.178 78.219 176.868 78.403l.588.023.588-.023c4.69-.184 115.565-5.345 176.868-78.403 61.302-73.057 47.132-183.144 46.499-187.795z" fill="#ff415b"/><path d="m255.926 336.613h-.056" fill="none"/><path d="m479.853 148.759-1.838-13.499-13.613.534c-4.69.184-115.566 5.345-176.868 78.403-13.087 15.597-23.708 34.287-31.62 55.443-.005-.014-.011-.029-.017-.043v145.383l.588-.023c4.69-.184 115.565-5.345 176.868-78.403 61.303-73.057 47.133-183.144 46.5-187.795z" fill="#e50058"/></g></svg>