<svg id="Layer_1" enable-background="new 0 0 512 512" height="512" viewBox="0 0 512 512" width="512" xmlns="http://www.w3.org/2000/svg"><g><g><path d="m437.02 93.924c-48.353-48.352-112.64-74.98-181.02-74.98l-10.667 247.723 10.667 202.666 134.158 23.723 3.698-2.367c35.504-22.731 65.141-54.174 85.704-90.93 21.222-37.934 32.44-81.095 32.44-124.815 0-68.381-26.629-132.668-74.98-181.02z" fill="#efe2dd"/><path d="m74.98 93.924c-48.351 48.352-74.98 112.639-74.98 181.02 0 43.72 11.218 86.881 32.441 124.816 20.563 36.756 50.199 68.199 85.704 90.93l3.698 2.367 134.157-23.724v-450.389c-68.38 0-132.668 26.628-181.02 74.98z" fill="#f7f0eb"/></g><g><path d="m256 393.311-10.667 54.689 10.667 45.056h134.158l.032-.02-34.684-151.703z" fill="#b8aeaa"/><path d="m256 493.056v-99.745l-99.506-51.978-34.684 151.703.032.02z" fill="#c8beb9"/></g><g><path d="m256 105.717c20.301 0 57.198 3.314 57.198 3.314l108.119 134.915s2.398 8.312 5.374 21.017c6.976 32.038-12.355 65.554-40.146 84.159l-66.545 45.545-64-10.667-10.667-138.666z" fill="#f90"/><path d="m256 105.717c-20.301 0-57.198 3.314-57.198 3.314l-108.119 134.915s-2.398 8.312-5.374 21.017c-6.976 32.038 12.355 65.554 40.146 84.159l66.545 45.545 64-10.667z" fill="#fdb902"/></g><path d="m198.802 109.03c-9.548-12.215-24.402-19.689-40.242-19.689h-75.271l-4.459 6.623c-.52.772-12.797 19.215-18.295 45.374-7.487 35.628.851 68.694 24.114 95.622l6.034 6.985 8.955-2.238c1.927-.482 19.394-5.276 38.917-24.979 10.83-10.929 20.309-24.447 28.175-40.179z" fill="#36607d"/><path d="m313.198 109.03c9.548-12.215 24.402-19.689 40.242-19.689h75.272l4.459 6.623c.52.772 12.797 19.215 18.295 45.374 7.487 35.628-.851 68.694-24.114 95.622l-6.034 6.985-8.955-2.238c-1.927-.482-19.394-5.276-38.917-24.979-10.83-10.929-20.309-24.447-28.175-40.179z" fill="#28485e"/><g><path d="m256 202.667h13.249v21.482c0 26.506 12.099 51.213 33.195 67.788 2.861 2.248 6.156 4.768 9.794 7.49 22.517 16.848 35.96 43.675 35.96 71.762v4.579l-.687 18.055-.034.585c-1.105 13.733-7.278 26.457-17.38 35.826s-23.254 14.567-37.032 14.637c-.092 0-.182 0-.273 0-14.01-.001-27.075-5.419-36.792-14.781l-9.422-67.251z" fill="#efe2dd"/><path d="m256 202.667h-13.25v21.482c0 26.506-12.099 51.213-33.195 67.788-2.861 2.248-6.156 4.768-9.794 7.49-22.517 16.848-35.96 43.675-35.96 71.762v4.579l.687 18.055.034.585c1.105 13.733 7.278 26.457 17.38 35.826s23.254 14.567 37.032 14.637h.273c14.01-.001 27.075-5.419 36.792-14.781v-227.423z" fill="#f7f0eb"/></g><g><path d="m266.041 341.333h-10.041l-10.891 29.465 10.891 48.2 26.97-16.545c9.911-5.947 15.975-16.657 15.975-28.215.001-18.173-14.731-32.905-32.904-32.905z" fill="#28485e"/><path d="m245.959 341.333c-18.173 0-32.904 14.732-32.904 32.905 0 11.558 6.064 22.269 15.975 28.215l26.97 16.545v-77.665z" fill="#36607d"/></g><path d="m162.521 226h30v30h-30z" fill="#28485e"/><path d="m319.478 226h30v30h-30z" fill="#1b303e"/></g></svg>