<svg height="512pt" viewBox="0 0 512 512" width="512pt" xmlns="http://www.w3.org/2000/svg"><path d="m511.921875 0-103.207031 40.835938-9.074219-32.203126-158.175781 94.484376-.105469.0625c-103.726563 62.242187-168.601563 103.09375-193.203125 127.699218-64.207031 64.207032-64.207031 168.679688 0 232.886719 31.101562 31.105469 72.457031 48.234375 116.445312 48.234375 43.984376 0 85.339844-17.128906 116.441407-48.234375 22.453125-22.449219 59.78125-78.097656 128.84375-192.074219l93.21875-159.460937-32.019531-9.023438zm0 0" fill="#ff7037"/><path d="m511.921875 0-464.179687 463.34375c.140624.140625.273437.28125.414062.421875 31.101562 31.105469 72.457031 48.234375 116.445312 48.234375 43.984376 0 85.339844-17.128906 116.441407-48.234375 22.453125-22.449219 59.78125-78.097656 128.84375-192.074219l93.21875-159.460937-32.019531-9.023438zm0 0" fill="#ff1f3e"/><path d="m237.242188 274.683594c-19.40625-19.402344-45.203126-30.089844-72.640626-30.089844s-53.238281 10.6875-72.636718 30.089844c-19.40625 19.402344-30.089844 45.199218-30.089844 72.640625 0 27.4375 10.683594 53.234375 30.089844 72.636719 19.402344 19.402343 45.199218 30.089843 72.636718 30.089843s53.238282-10.6875 72.640626-30.089843c40.050781-40.054688 40.050781-105.226563 0-145.277344zm0 0" fill="#ff9d22"/><path d="m236.988281 274.4375-145.402343 145.140625c.128906.125.25.257813.375.382813 19.402343 19.402343 45.199218 30.085937 72.640624 30.085937 27.4375 0 53.234376-10.683594 72.636719-30.085937 40.054688-40.054688 40.054688-105.226563 0-145.277344-.082031-.082032-.167969-.164063-.25-.246094zm0 0" fill="#ff7037"/><path d="m197.34375 314.578125c-8.746094-8.746094-20.375-13.5625-32.742188-13.5625-12.367187 0-23.996093 4.816406-32.742187 13.5625s-13.5625 20.375-13.5625 32.742187c0 12.371094 4.816406 24 13.5625 32.742188 8.746094 8.75 20.375 13.5625 32.742187 13.5625 12.367188 0 23.996094-4.8125 32.742188-13.5625 18.054688-18.050781 18.054688-47.429688 0-65.484375zm0 0" fill="#ffdc00"/><path d="m197.054688 314.300781-65.53125 65.410157c.113281.117187.222656.238281.335937.351562 8.746094 8.75 20.371094 13.5625 32.742187 13.5625 12.367188 0 23.996094-4.8125 32.742188-13.5625 18.054688-18.050781 18.054688-47.429688 0-65.484375-.09375-.09375-.195312-.183594-.289062-.277344zm0 0" fill="#ffc000"/></svg>