<?xml version="1.0" encoding="iso-8859-1"?>
<!-- Generator: Adobe Illustrator 19.0.0, SVG Export Plug-In . SVG Version: 6.00 Build 0)  -->
<svg version="1.1" id="Capa_1" xmlns="http://www.w3.org/2000/svg" xmlns:xlink="http://www.w3.org/1999/xlink" x="0px" y="0px"
	 viewBox="0 0 512 512" style="enable-background:new 0 0 512 512;" xml:space="preserve">
<polygon style="fill:#00A5FF;" points="214.92,246.463 35.346,304.196 19.965,256.38 4.193,207.324 183.767,149.581 
	199.468,198.417 "/>
<polygon style="fill:#0087FF;" points="199.468,198.417 214.92,246.463 35.346,304.196 19.965,256.38 "/>
<path style="fill:#50F2F0;" d="M465.456,199.618l-14.901,5.894l-25.689-79.889l-25.749-80.08l15.552-3.903
	c38.679-9.707,79.509,15.451,92.959,57.263C521.068,140.724,502.544,184.967,465.456,199.618z"/>
<path style="fill:#2AE1E5;" d="M465.456,199.618l-14.901,5.894l-25.689-79.889l82.762-26.72
	C521.068,140.724,502.544,184.967,465.456,199.618z"/>
<rect x="214.46" y="390.741" style="fill:#8F8F8F;" width="113.164" height="30.022"/>
<rect x="269.33" y="390.741" style="fill:#606060;" width="58.293" height="30.022"/>
<polygon style="fill:#BFBFBF;" points="359.868,485.611 329.015,485.611 284.041,295.499 284.041,485.611 254.019,485.611 
	254.019,303.715 210.987,485.611 180.134,485.611 239.308,235.475 268.53,242.38 267.269,247.704 272.733,247.704 271.402,242.069 
	300.614,235.154 "/>
<polygon style="fill:#FFA01A;" points="418.622,202.42 192.583,275.094 170.897,207.644 148.941,139.333 374.969,66.659 
	396.835,134.68 "/>
<polygon style="fill:#BFBFBF;" points="68.111,308.039 39.529,317.225 19.965,256.38 0,194.294 28.581,185.107 48.536,247.153 "/>
<g>
	<polygon style="fill:#8F8F8F;" points="359.868,485.611 329.015,485.611 284.041,295.499 284.041,485.611 269.33,485.611 
		269.33,247.704 272.733,247.704 271.402,242.069 300.614,235.154 	"/>
	<polygon style="fill:#8F8F8F;" points="48.536,247.153 68.111,308.039 39.529,317.225 19.965,256.38 	"/>
</g>
<polygon style="fill:#FF6300;" points="396.835,134.68 418.622,202.42 192.583,275.094 170.897,207.644 "/>
<polygon style="fill:#00A5FF;" points="482.339,206.283 397.136,233.673 368.274,143.906 339.292,53.789 424.506,26.389 
	453.447,116.396 "/>
<polygon style="fill:#0087FF;" points="482.339,206.283 397.136,233.673 368.274,143.906 453.447,116.396 "/>
<g>
</g>
<g>
</g>
<g>
</g>
<g>
</g>
<g>
</g>
<g>
</g>
<g>
</g>
<g>
</g>
<g>
</g>
<g>
</g>
<g>
</g>
<g>
</g>
<g>
</g>
<g>
</g>
<g>
</g>
</svg>
